<svg width="20" height="20" viewBox="0 0 20 20" fill="none" xmlns="http://www.w3.org/2000/svg">
<path d="M0.0749817 9.98198C0.0749817 15.4939 4.61994 19.9635 10.2269 19.9635C14.7123 19.9635 18.5178 17.1035 19.8601 13.1375C19.9541 12.6387 19.6399 12.4555 19.3718 12.4555C19.1297 12.4555 18.33 12.4648 17.4817 12.4691C18.0958 15.2459 16.2839 15.8319 16.2839 15.8319C15.1104 16.2859 14.7984 16.9402 14.7984 16.9402C14.1683 17.8458 14.1813 16.8719 14.1813 16.8719C14.2527 15.8696 15.2274 15.3418 15.2274 15.3418C16.7795 14.4516 16.3308 13.0068 16.0714 12.4372C15.4154 12.3476 14.9672 12.0889 14.7138 11.8035C14.4571 14.0205 13.5866 16.3511 9.69665 16.3511C8.58827 16.3511 7.68264 15.9612 6.97169 15.3226C6.71582 15.4263 5.68343 15.7679 4.28506 15.2259C4.28506 15.2259 4.01221 14.3878 5.32568 12.4803C5.10075 11.6841 4.98794 10.8302 4.98408 9.98198C4.98794 9.13372 5.10075 8.27917 5.32568 7.48149C4.01221 5.57636 4.28506 4.73934 4.28506 4.73934C5.68343 4.19603 6.71582 4.53785 6.97169 4.64149C7.68264 4.00149 8.58827 3.61421 9.69665 3.61421C13.5959 3.61421 14.4544 5.94925 14.7058 8.1719C15.0208 7.81388 15.6386 7.49488 16.5858 7.49488C17.944 7.49488 19.0372 7.50644 19.3718 7.50644C19.6419 7.50644 19.9585 7.32678 19.8588 6.82083C18.5149 2.85702 14.7108 0.000659627 10.2269 0.000659627C4.61994 0.000659627 0.0749817 4.46959 0.0749817 9.98198" fill="black"/>
<path d="M14.651 16.183C14.7016 16.205 14.7165 16.283 14.6819 16.354C14.6488 16.4264 14.58 16.4671 14.5294 16.4436C14.4775 16.4221 14.4632 16.344 14.4976 16.2717C14.5309 16.1992 14.6004 16.1578 14.651 16.183" fill="black"/>
<path d="M15.1096 15.7787C15.1545 15.8263 15.1336 15.9193 15.0627 15.9825C14.9919 16.0478 14.8973 16.06 14.8517 16.0117C14.8068 15.9626 14.8278 15.8724 14.8986 15.8069C14.9702 15.7417 15.0642 15.7289 15.1096 15.7787" fill="black"/>
<path d="M15.6943 15.3851C15.7375 15.4463 15.697 15.5463 15.6067 15.6081C15.5164 15.6693 15.4081 15.6693 15.3648 15.6068C15.3214 15.5448 15.3604 15.4463 15.45 15.3836C15.5416 15.3227 15.6501 15.3227 15.6943 15.3851" fill="black"/>
<path d="M16.2591 14.846C16.3205 14.9007 16.304 15.0172 16.2203 15.1025C16.1384 15.1898 16.0223 15.2141 15.9609 15.1592C15.8994 15.1038 15.9167 14.9866 15.9997 14.9007C16.0814 14.8141 16.1984 14.7876 16.2591 14.846" fill="black"/>
<path d="M16.5871 14.1022C16.6666 14.1263 16.7028 14.2385 16.669 14.3516C16.6342 14.4645 16.5411 14.5384 16.4607 14.5155C16.3807 14.4921 16.343 14.3793 16.3792 14.2655C16.4138 14.1527 16.5063 14.0787 16.5871 14.1022" fill="black"/>
<path d="M16.648 13.2853C16.7317 13.2825 16.8011 13.3783 16.8025 13.497C16.8053 13.6164 16.7376 13.7129 16.6552 13.7142C16.5707 13.7142 16.5019 13.6205 16.4999 13.5011C16.4975 13.3825 16.5648 13.2853 16.648 13.2853" fill="black"/>
<path d="M16.5163 12.5251C16.5981 12.5109 16.6819 12.5934 16.7041 12.7112C16.7258 12.8271 16.6754 12.9344 16.5944 12.9491C16.5106 12.9635 16.4267 12.8795 16.4051 12.7638C16.3842 12.6458 16.4333 12.5402 16.5163 12.5251" fill="black"/>
</svg>
