<svg width="20" height="20" viewBox="0 0 20 20" fill="none" xmlns="http://www.w3.org/2000/svg">
<path fill-rule="evenodd" clip-rule="evenodd" d="M10 0C15.5228 0 20 4.47715 20 10C20 15.5228 15.5228 20 10 20C4.47715 20 0 15.5228 0 10C0 4.47715 4.47715 0 10 0ZM9.08397 13.3035C9.52134 14.3053 9.97074 15.3346 10.4892 16.2757L10.4892 16.2758C10.849 16.7672 11.1035 16.114 11.3423 15.5012C11.3802 15.4038 11.4178 15.3074 11.4553 15.2168C11.4785 15.1414 11.5029 15.0647 11.5277 14.987C11.7448 14.3055 11.9869 13.5455 11.6227 12.8839C10.9983 11.797 10.2765 10.7712 9.55519 9.7463C9.31887 9.41051 9.08262 9.0748 8.84987 8.73705C8.83975 8.72123 8.82817 8.70336 8.81552 8.68385C8.629 8.39611 8.20955 7.74901 8.78753 7.98836C9.40653 8.55439 9.95448 9.16066 10.5054 9.77023C10.8767 10.181 11.2494 10.5934 11.646 10.9959C11.9309 11.3464 12.5037 11.7104 12.9025 11.3179C13.5355 10.4138 14.1531 9.4955 14.7703 8.57777C14.9712 8.27915 15.172 7.98058 15.3733 7.68257C15.7765 7.17749 15.4504 6.38812 14.8202 6.27707C14.5303 6.22768 14.2404 6.1781 13.9505 6.12852C12.3486 5.85453 10.7461 5.58044 9.13895 5.33832C8.88686 5.30542 8.63476 5.26811 8.38254 5.23079C7.77125 5.14033 7.1592 5.04976 6.54462 5.02148C5.93131 5.0944 6.06616 5.83803 6.20407 6.25189C7.01348 8.37906 7.8829 10.485 8.76765 12.5826C8.87292 12.8202 8.97809 13.0611 9.08397 13.3035Z" fill="black"/>
</svg>
