<svg width="21" height="21" viewBox="0 0 21 21" fill="none" xmlns="http://www.w3.org/2000/svg">
<path fill-rule="evenodd" clip-rule="evenodd" d="M0.958344 6.97185L0.958344 13.1116C0.958344 18.715 2.28509 20.0417 7.88848 20.0417H14.0282C19.6316 20.0417 20.9583 18.715 20.9583 13.1116V6.97185C20.9583 1.36847 19.6316 0.0417175 14.0282 0.0417175H7.88848C2.28509 0.0417175 0.958344 1.36847 0.958344 6.97185ZM7.30979 4.10663C7.30979 3.66909 7.53562 3.57029 7.84613 3.66909C8.55777 3.82328 10.4455 5.10372 11.0302 5.50031C11.1413 5.57567 11.2053 5.61912 11.2053 5.61686C11.4594 5.77212 11.5723 5.82858 11.8546 5.61686C11.959 5.54033 12.1182 5.37804 12.3002 5.19256C12.4874 5.0018 12.6987 4.7865 12.8991 4.61475C13.6048 3.99372 14.1976 3.51383 14.6069 3.3868C15.0162 3.27389 15.2279 3.47149 15.2279 3.89492V5.34869C15.2279 5.73396 15.0067 5.93255 14.5351 6.35578C14.333 6.53725 14.0848 6.76003 13.7883 7.05653C12.9555 7.9175 12.8426 8.29858 12.8426 8.5103C12.8426 8.8067 12.9132 8.89139 13.3366 8.89139H14.6492C15.0021 8.89139 15.2138 9.0043 15.2138 9.93585C15.2138 11.4743 14.2823 13.1821 12.5462 14.3819C10.0056 16.1885 8.08608 16.6825 7.70499 16.6825C7.49327 16.6825 7.29567 16.6119 7.29567 16.1885V14.7206C7.29567 14.3536 7.45093 14.2125 7.86025 14.0713C9.93505 13.3515 11.7558 12.1518 11.7558 11.6578C11.7558 11.4743 11.6711 11.3896 11.2053 11.3896H9.05997C8.45016 11.4245 8.18448 11.6367 7.98746 11.7942C7.86527 11.8918 7.76949 11.9683 7.63442 11.9683C7.46505 11.9683 7.29567 11.8272 7.29567 11.6013V9.31482C7.29567 9.0043 7.46505 8.89139 7.83202 8.89139H10.7255C11.036 8.89139 11.1489 8.76436 11.1489 8.66556C11.1489 8.48207 11.036 8.32681 10.6972 7.98807C9.52574 6.94361 7.7191 6.19555 7.7191 6.19555C7.50739 6.09675 7.30979 5.92738 7.30979 5.56041V4.10663Z" fill="black"/>
</svg>
